<svg width="64" height="64" viewBox="0 0 64 64" fill="none" xmlns="http://www.w3.org/2000/svg">
<g filter="url(#filter0_dd_1_114)">
<rect width="64" height="64" rx="14" fill="url(#paint0_linear_1_114)"/>
<path d="M30.6893 19.7521C30.7465 19.4462 30.9088 19.17 31.1481 18.9712C31.3875 18.7724 31.6889 18.6636 32 18.6636C32.3112 18.6636 32.6125 18.7724 32.8519 18.9712C33.0912 19.17 33.2535 19.4462 33.3107 19.7521L34.712 27.1628C34.8115 27.6896 35.0676 28.1743 35.4467 28.5534C35.8259 28.9325 36.3105 29.1886 36.8373 29.2881L44.248 30.6894C44.5539 30.7466 44.8301 30.9089 45.0289 31.1482C45.2277 31.3876 45.3365 31.6889 45.3365 32.0001C45.3365 32.3113 45.2277 32.6126 45.0289 32.852C44.8301 33.0913 44.5539 33.2536 44.248 33.3108L36.8373 34.7121C36.3105 34.8116 35.8259 35.0677 35.4467 35.4468C35.0676 35.8259 34.8115 36.3106 34.712 36.8374L33.3107 44.2481C33.2535 44.554 33.0912 44.8302 32.8519 45.029C32.6125 45.2278 32.3112 45.3366 32 45.3366C31.6889 45.3366 31.3875 45.2278 31.1481 45.029C30.9088 44.8302 30.7465 44.554 30.6893 44.2481L29.288 36.8374C29.1885 36.3106 28.9324 35.8259 28.5533 35.4468C28.1742 35.0677 27.6895 34.8116 27.1627 34.7121L19.752 33.3108C19.4461 33.2536 19.1699 33.0913 18.9711 32.852C18.7723 32.6126 18.6635 32.3113 18.6635 32.0001C18.6635 31.6889 18.7723 31.3876 18.9711 31.1482C19.1699 30.9089 19.4461 30.7466 19.752 30.6894L27.1627 29.2881C27.6895 29.1886 28.1742 28.9325 28.5533 28.5534C28.9324 28.1743 29.1885 27.6896 29.288 27.1628L30.6893 19.7521Z" stroke="white" stroke-width="2.66667" stroke-linecap="round" stroke-linejoin="round"/>
<path d="M42.6667 18.6667V24.0001" stroke="white" stroke-width="2.66667" stroke-linecap="round" stroke-linejoin="round"/>
<path d="M45.3333 21.3333H40" stroke="white" stroke-width="2.66667" stroke-linecap="round" stroke-linejoin="round"/>
<path d="M21.3333 45.3333C22.8061 45.3333 24 44.1394 24 42.6667C24 41.1939 22.8061 40 21.3333 40C19.8606 40 18.6667 41.1939 18.6667 42.6667C18.6667 44.1394 19.8606 45.3333 21.3333 45.3333Z" stroke="white" stroke-width="2.66667" stroke-linecap="round" stroke-linejoin="round"/>
</g>
<defs>
<filter id="filter0_dd_1_114" x="-12" y="-2" width="88" height="88" filterUnits="userSpaceOnUse" color-interpolation-filters="sRGB">
<feFlood flood-opacity="0" result="BackgroundImageFix"/>
<feColorMatrix in="SourceAlpha" type="matrix" values="0 0 0 0 0 0 0 0 0 0 0 0 0 0 0 0 0 0 127 0" result="hardAlpha"/>
<feMorphology radius="4" operator="erode" in="SourceAlpha" result="effect1_dropShadow_1_114"/>
<feOffset dy="4"/>
<feGaussianBlur stdDeviation="3"/>
<feComposite in2="hardAlpha" operator="out"/>
<feColorMatrix type="matrix" values="0 0 0 0 0 0 0 0 0 0 0 0 0 0 0 0 0 0 0.1 0"/>
<feBlend mode="normal" in2="BackgroundImageFix" result="effect1_dropShadow_1_114"/>
<feColorMatrix in="SourceAlpha" type="matrix" values="0 0 0 0 0 0 0 0 0 0 0 0 0 0 0 0 0 0 127 0" result="hardAlpha"/>
<feMorphology radius="3" operator="erode" in="SourceAlpha" result="effect2_dropShadow_1_114"/>
<feOffset dy="10"/>
<feGaussianBlur stdDeviation="7.5"/>
<feComposite in2="hardAlpha" operator="out"/>
<feColorMatrix type="matrix" values="0 0 0 0 0 0 0 0 0 0 0 0 0 0 0 0 0 0 0.1 0"/>
<feBlend mode="normal" in2="effect1_dropShadow_1_114" result="effect2_dropShadow_1_114"/>
<feBlend mode="normal" in="SourceGraphic" in2="effect2_dropShadow_1_114" result="shape"/>
</filter>
<linearGradient id="paint0_linear_1_114" x1="0" y1="0" x2="64" y2="64" gradientUnits="userSpaceOnUse">
<stop stop-color="#F6339A"/>
<stop offset="1" stop-color="#FF2056"/>
</linearGradient>
</defs>
</svg>
