<svg width="56" height="56" viewBox="0 0 56 56" fill="none" xmlns="http://www.w3.org/2000/svg">
<rect width="56" height="56" rx="14" fill="#2B7FFF" fill-opacity="0.1"/>
<rect x="0.5" y="0.5" width="55" height="55" rx="13.5" stroke="#2B7FFF" stroke-opacity="0.3"/>
<path d="M28 36V38" stroke="#51A2FF" stroke-width="2" stroke-linecap="round" stroke-linejoin="round"/>
<path d="M28 18V20" stroke="#51A2FF" stroke-width="2" stroke-linecap="round" stroke-linejoin="round"/>
<path d="M33 36V38" stroke="#51A2FF" stroke-width="2" stroke-linecap="round" stroke-linejoin="round"/>
<path d="M33 18V20" stroke="#51A2FF" stroke-width="2" stroke-linecap="round" stroke-linejoin="round"/>
<path d="M18 28H20" stroke="#51A2FF" stroke-width="2" stroke-linecap="round" stroke-linejoin="round"/>
<path d="M18 33H20" stroke="#51A2FF" stroke-width="2" stroke-linecap="round" stroke-linejoin="round"/>
<path d="M18 23H20" stroke="#51A2FF" stroke-width="2" stroke-linecap="round" stroke-linejoin="round"/>
<path d="M36 28H38" stroke="#51A2FF" stroke-width="2" stroke-linecap="round" stroke-linejoin="round"/>
<path d="M36 33H38" stroke="#51A2FF" stroke-width="2" stroke-linecap="round" stroke-linejoin="round"/>
<path d="M36 23H38" stroke="#51A2FF" stroke-width="2" stroke-linecap="round" stroke-linejoin="round"/>
<path d="M23 36V38" stroke="#51A2FF" stroke-width="2" stroke-linecap="round" stroke-linejoin="round"/>
<path d="M23 18V20" stroke="#51A2FF" stroke-width="2" stroke-linecap="round" stroke-linejoin="round"/>
<path d="M34 20H22C20.8954 20 20 20.8954 20 22V34C20 35.1046 20.8954 36 22 36H34C35.1046 36 36 35.1046 36 34V22C36 20.8954 35.1046 20 34 20Z" stroke="#51A2FF" stroke-width="2" stroke-linecap="round" stroke-linejoin="round"/>
<path d="M31 24H25C24.4477 24 24 24.4477 24 25V31C24 31.5523 24.4477 32 25 32H31C31.5523 32 32 31.5523 32 31V25C32 24.4477 31.5523 24 31 24Z" stroke="#51A2FF" stroke-width="2" stroke-linecap="round" stroke-linejoin="round"/>
</svg>
