<svg width="64" height="64" viewBox="0 0 64 64" fill="none" xmlns="http://www.w3.org/2000/svg">
  <rect width="64" height="64" rx="16" fill="url(#paint0_linear_6014_2)" />
  <circle cx="32" cy="32" r="21" fill="url(#paint1_radial_6014_2)" />
  <path
    d="M25 19.2L22 22.2C21.1 23.1 20.9 24.6 21.5 25.8C24.2 30.9 28.1 34.8 33.2 37.5C34.4 38.1 35.9 37.9 36.8 37L39.8 34C40.6 33.2 40.6 31.8 39.8 31L36.9 28.1C36.2 27.4 35.1 27.4 34.4 28.1L33.3 29.2C32.6 29.9 31.6 30 30.8 29.5C29 28.4 27.5 27 26.4 25.2C25.9 24.4 26 23.4 26.7 22.7L27.8 21.6C28.5 20.9 28.5 19.8 27.8 19.1L24.9 16.2C24.2 15.4 22.8 15.4 22 16.2L19 19.2"
    stroke="white"
    stroke-width="2.7"
    stroke-linecap="round"
    stroke-linejoin="round"
  />
  <path d="M42 20C44.76 22.76 44.76 27.24 42 30" stroke="white" stroke-width="2.5" stroke-linecap="round" opacity="0.65" />
  <path d="M38 23.25C39.52 24.77 39.52 27.23 38 28.75" stroke="white" stroke-width="2.5" stroke-linecap="round" opacity="0.4" />
  <defs>
    <linearGradient id="paint0_linear_6014_2" x1="18" y1="10" x2="54" y2="54" gradientUnits="userSpaceOnUse">
      <stop stop-color="#7C3AED" />
      <stop offset="1" stop-color="#DB2777" />
    </linearGradient>
    <radialGradient id="paint1_radial_6014_2" cx="0" cy="0" r="1" gradientUnits="userSpaceOnUse" gradientTransform="translate(32 32) scale(21)">
      <stop stop-color="white" stop-opacity="0.16" />
      <stop offset="1" stop-color="white" stop-opacity="0" />
    </radialGradient>
  </defs>
</svg>

