<svg width="56" height="56" viewBox="0 0 56 56" fill="none" xmlns="http://www.w3.org/2000/svg">
  <defs>
    <linearGradient id="benefit_never_miss_bg" x1="12" y1="6" x2="44" y2="50" gradientUnits="userSpaceOnUse">
      <stop stop-color="#AD46FF"/>
      <stop offset="1" stop-color="#F6339A"/>
    </linearGradient>
    <linearGradient id="benefit_never_miss_phone" x1="20" y1="18" x2="38" y2="38" gradientUnits="userSpaceOnUse">
      <stop stop-color="#FFFFFF" stop-opacity="0.95"/>
      <stop offset="1" stop-color="#F8FAFC" stop-opacity="0.9"/>
    </linearGradient>
  </defs>
  <rect x="4" y="4" width="48" height="48" rx="14" fill="url(#benefit_never_miss_bg)"/>
  <path
    d="M32 18H24.5C23.1193 18 22 19.1193 22 20.5V35.5C22 36.8807 23.1193 38 24.5 38H32C33.3807 38 34.5 36.8807 34.5 35.5V20.5C34.5 19.1193 33.3807 18 32 18Z"
    fill="url(#benefit_never_miss_phone)"
    stroke="white"
    stroke-width="1.4"
  />
  <circle cx="28.25" cy="33.75" r="1.5" fill="#AD46FF" opacity="0.95"/>
  <path
    d="M26.5 21.5H30.5"
    stroke="#AD46FF"
    stroke-width="1.6"
    stroke-linecap="round"
  />
  <path
    d="M20 27.5C20 23.3579 23.3579 20 27.5 20"
    stroke="white"
    stroke-width="2.4"
    stroke-linecap="round"
    opacity="0.7"
  />
  <path
    d="M20 31C20 26.0294 24.0294 22 29 22"
    stroke="white"
    stroke-width="2.4"
    stroke-linecap="round"
    opacity="0.5"
  />
  <circle cx="36.5" cy="19.5" r="4.5" fill="#F8FAFC" stroke="white" stroke-width="1.6"/>
  <path
    d="M36.5 17.75V21.25"
    stroke="#AD46FF"
    stroke-width="1.6"
    stroke-linecap="round"
  />
  <path
    d="M34.75 19.5H38.25"
    stroke="#AD46FF"
    stroke-width="1.6"
    stroke-linecap="round"
  />
</svg>

