<svg width="56" height="56" viewBox="0 0 56 56" fill="none" xmlns="http://www.w3.org/2000/svg">
<g filter="url(#filter0_dd_1_142)">
<rect width="56" height="56" rx="14" fill="url(#paint0_linear_1_142)"/>
<path d="M33.3333 40V37.3333C33.3333 35.9188 32.7714 34.5623 31.7712 33.5621C30.771 32.5619 29.4145 32 28 32H20C18.5855 32 17.229 32.5619 16.2288 33.5621C15.2286 34.5623 14.6667 35.9188 14.6667 37.3333V40" stroke="white" stroke-width="2.66667" stroke-linecap="round" stroke-linejoin="round"/>
<path d="M33.3333 16.1707C34.477 16.4671 35.4899 17.135 36.2129 18.0694C36.936 19.0038 37.3283 20.1518 37.3283 21.3333C37.3283 22.5148 36.936 23.6628 36.2129 24.5972C35.4899 25.5316 34.477 26.1995 33.3333 26.496" stroke="white" stroke-width="2.66667" stroke-linecap="round" stroke-linejoin="round"/>
<path d="M41.3333 40V37.3333C41.3325 36.1516 40.9391 35.0037 40.2152 34.0698C39.4912 33.1358 38.4775 32.4688 37.3333 32.1733" stroke="white" stroke-width="2.66667" stroke-linecap="round" stroke-linejoin="round"/>
<path d="M24 26.6667C26.9455 26.6667 29.3333 24.2789 29.3333 21.3333C29.3333 18.3878 26.9455 16 24 16C21.0545 16 18.6667 18.3878 18.6667 21.3333C18.6667 24.2789 21.0545 26.6667 24 26.6667Z" stroke="white" stroke-width="2.66667" stroke-linecap="round" stroke-linejoin="round"/>
</g>
<defs>
<filter id="filter0_dd_1_142" x="-12" y="-2" width="80" height="80" filterUnits="userSpaceOnUse" color-interpolation-filters="sRGB">
<feFlood flood-opacity="0" result="BackgroundImageFix"/>
<feColorMatrix in="SourceAlpha" type="matrix" values="0 0 0 0 0 0 0 0 0 0 0 0 0 0 0 0 0 0 127 0" result="hardAlpha"/>
<feMorphology radius="4" operator="erode" in="SourceAlpha" result="effect1_dropShadow_1_142"/>
<feOffset dy="4"/>
<feGaussianBlur stdDeviation="3"/>
<feComposite in2="hardAlpha" operator="out"/>
<feColorMatrix type="matrix" values="0 0 0 0 0 0 0 0 0 0 0 0 0 0 0 0 0 0 0.1 0"/>
<feBlend mode="normal" in2="BackgroundImageFix" result="effect1_dropShadow_1_142"/>
<feColorMatrix in="SourceAlpha" type="matrix" values="0 0 0 0 0 0 0 0 0 0 0 0 0 0 0 0 0 0 127 0" result="hardAlpha"/>
<feMorphology radius="3" operator="erode" in="SourceAlpha" result="effect2_dropShadow_1_142"/>
<feOffset dy="10"/>
<feGaussianBlur stdDeviation="7.5"/>
<feComposite in2="hardAlpha" operator="out"/>
<feColorMatrix type="matrix" values="0 0 0 0 0 0 0 0 0 0 0 0 0 0 0 0 0 0 0.1 0"/>
<feBlend mode="normal" in2="effect1_dropShadow_1_142" result="effect2_dropShadow_1_142"/>
<feBlend mode="normal" in="SourceGraphic" in2="effect2_dropShadow_1_142" result="shape"/>
</filter>
<linearGradient id="paint0_linear_1_142" x1="0" y1="0" x2="56" y2="56" gradientUnits="userSpaceOnUse">
<stop stop-color="#AD46FF"/>
<stop offset="1" stop-color="#F6339A"/>
</linearGradient>
</defs>
</svg>
