<svg width="56" height="56" viewBox="0 0 56 56" fill="none" xmlns="http://www.w3.org/2000/svg">
<rect width="56" height="56" rx="14" fill="#2B7FFF" fill-opacity="0.1"/>
<rect x="0.5" y="0.5" width="55" height="55" rx="13.5" stroke="#2B7FFF" stroke-opacity="0.3"/>
<path d="M27.017 18.814C27.0599 18.5846 27.1816 18.3774 27.3611 18.2283C27.5406 18.0792 27.7667 17.9976 28 17.9976C28.2334 17.9976 28.4594 18.0792 28.6389 18.2283C28.8184 18.3774 28.9402 18.5846 28.983 18.814L30.034 24.372C30.1087 24.7671 30.3007 25.1306 30.585 25.4149C30.8694 25.6993 31.2329 25.8913 31.628 25.966L37.186 27.017C37.4154 27.0598 37.6226 27.1815 37.7717 27.3611C37.9208 27.5406 38.0024 27.7666 38.0024 28C38.0024 28.2333 37.9208 28.4593 37.7717 28.6389C37.6226 28.8184 37.4154 28.9401 37.186 28.983L31.628 30.034C31.2329 30.1086 30.8694 30.3006 30.585 30.585C30.3007 30.8693 30.1087 31.2328 30.034 31.628L28.983 37.186C28.9402 37.4153 28.8184 37.6225 28.6389 37.7716C28.4594 37.9207 28.2334 38.0023 28 38.0023C27.7667 38.0023 27.5406 37.9207 27.3611 37.7716C27.1816 37.6225 27.0599 37.4153 27.017 37.186L25.966 31.628C25.8914 31.2328 25.6993 30.8693 25.415 30.585C25.1306 30.3006 24.7672 30.1086 24.372 30.034L18.814 28.983C18.5846 28.9401 18.3774 28.8184 18.2283 28.6389C18.0792 28.4593 17.9976 28.2333 17.9976 28C17.9976 27.7666 18.0792 27.5406 18.2283 27.3611C18.3774 27.1815 18.5846 27.0598 18.814 27.017L24.372 25.966C24.7672 25.8913 25.1306 25.6993 25.415 25.4149C25.6993 25.1306 25.8914 24.7671 25.966 24.372L27.017 18.814Z" stroke="#51A2FF" stroke-width="2" stroke-linecap="round" stroke-linejoin="round"/>
<path d="M36 18V22" stroke="#51A2FF" stroke-width="2" stroke-linecap="round" stroke-linejoin="round"/>
<path d="M38 20H34" stroke="#51A2FF" stroke-width="2" stroke-linecap="round" stroke-linejoin="round"/>
<path d="M20 38C21.1046 38 22 37.1046 22 36C22 34.8954 21.1046 34 20 34C18.8954 34 18 34.8954 18 36C18 37.1046 18.8954 38 20 38Z" stroke="#51A2FF" stroke-width="2" stroke-linecap="round" stroke-linejoin="round"/>
</svg>
