<svg width="56" height="56" viewBox="0 0 56 56" fill="none" xmlns="http://www.w3.org/2000/svg">
<rect width="56" height="56" rx="14" fill="#2B7FFF" fill-opacity="0.1"/>
<rect x="0.5" y="0.5" width="55" height="55" rx="13.5" stroke="#2B7FFF" stroke-opacity="0.3"/>
<path d="M28 34V21" stroke="#51A2FF" stroke-width="2" stroke-linecap="round" stroke-linejoin="round"/>
<path d="M31 29C30.1348 28.7471 29.3748 28.2206 28.834 27.4995C28.2932 26.7784 28.0005 25.9014 28 25C27.9995 25.9014 27.7068 26.7784 27.166 27.4995C26.6252 28.2206 25.8652 28.7471 25 29" stroke="#51A2FF" stroke-width="2" stroke-linecap="round" stroke-linejoin="round"/>
<path d="M33.598 22.5001C33.8281 22.1016 33.9635 21.6555 33.9936 21.1963C34.0237 20.7371 33.9478 20.2772 33.7717 19.852C33.5956 19.4269 33.324 19.0479 32.9781 18.7445C32.6321 18.4411 32.221 18.2213 31.7765 18.1022C31.332 17.9831 30.866 17.9679 30.4147 18.0576C29.9634 18.1474 29.5387 18.3398 29.1737 18.62C28.8086 18.9001 28.5129 19.2605 28.3093 19.6732C28.1058 20.0859 28 20.54 28 21.0001C28 20.54 27.8942 20.0859 27.6907 19.6732C27.4871 19.2605 27.1914 18.9001 26.8263 18.62C26.4613 18.3398 26.0366 18.1474 25.5853 18.0576C25.134 17.9679 24.668 17.9831 24.2235 18.1022C23.779 18.2213 23.3679 18.4411 23.0219 18.7445C22.676 19.0479 22.4044 19.4269 22.2283 19.852C22.0522 20.2772 21.9763 20.7371 22.0064 21.1963C22.0365 21.6555 22.1719 22.1016 22.402 22.5001" stroke="#51A2FF" stroke-width="2" stroke-linecap="round" stroke-linejoin="round"/>
<path d="M33.997 21.125C34.5848 21.2761 35.1305 21.559 35.5928 21.9523C36.055 22.3456 36.4218 22.8389 36.6652 23.3948C36.9086 23.9508 37.0222 24.5549 36.9976 25.1613C36.973 25.7677 36.8107 26.3606 36.523 26.895" stroke="#51A2FF" stroke-width="2" stroke-linecap="round" stroke-linejoin="round"/>
<path d="M34 34.0001C34.8805 34.0001 35.7364 33.7095 36.4349 33.1735C37.1335 32.6375 37.6356 31.8859 37.8635 31.0354C38.0914 30.1849 38.0323 29.283 37.6954 28.4695C37.3585 27.656 36.7625 26.9764 36 26.5361" stroke="#51A2FF" stroke-width="2" stroke-linecap="round" stroke-linejoin="round"/>
<path d="M35.967 33.4829C36.0371 34.0251 35.9953 34.576 35.8441 35.1014C35.693 35.6269 35.4357 36.1157 35.0882 36.5379C34.7407 36.96 34.3104 37.3064 33.8238 37.5557C33.3372 37.805 32.8046 37.9518 32.259 37.9872C31.7134 38.0227 31.1664 37.9458 30.6516 37.7615C30.1369 37.5772 29.6654 37.2893 29.2662 36.9157C28.8671 36.542 28.5488 36.0905 28.331 35.589C28.1132 35.0875 28.0006 34.5467 28 33.9999C27.9994 34.5467 27.8867 35.0875 27.669 35.589C27.4512 36.0905 27.1329 36.542 26.7338 36.9157C26.3346 37.2893 25.8631 37.5772 25.3484 37.7615C24.8336 37.9458 24.2866 38.0227 23.741 37.9872C23.1954 37.9518 22.6628 37.805 22.1762 37.5557C21.6896 37.3064 21.2593 36.96 20.9118 36.5379C20.5643 36.1157 20.307 35.6269 20.1559 35.1014C20.0047 34.576 19.9629 34.0251 20.033 33.4829" stroke="#51A2FF" stroke-width="2" stroke-linecap="round" stroke-linejoin="round"/>
<path d="M22 34.0001C21.1195 34.0001 20.2636 33.7095 19.5651 33.1735C18.8665 32.6375 18.3644 31.8859 18.1365 31.0354C17.9086 30.1849 17.9677 29.283 18.3046 28.4695C18.6415 27.656 19.2375 26.9764 20 26.5361" stroke="#51A2FF" stroke-width="2" stroke-linecap="round" stroke-linejoin="round"/>
<path d="M22.003 21.125C21.4152 21.2761 20.8695 21.559 20.4072 21.9523C19.945 22.3456 19.5782 22.8389 19.3348 23.3948C19.0914 23.9508 18.9778 24.5549 19.0024 25.1613C19.027 25.7677 19.1893 26.3606 19.477 26.895" stroke="#51A2FF" stroke-width="2" stroke-linecap="round" stroke-linejoin="round"/>
</svg>
