<svg width="27" height="27" viewBox="0 0 27 27" fill="none" xmlns="http://www.w3.org/2000/svg">
<path d="M1.32226 19.1223C1.51831 19.6168 1.56196 20.1587 1.44759 20.6783L0.0275882 25.0649C-0.0181661 25.2874 -0.00633618 25.5178 0.0619557 25.7345C0.130248 25.9511 0.252738 26.1466 0.417811 26.3026C0.582884 26.4586 0.785067 26.5699 1.00519 26.6258C1.22531 26.6817 1.45607 26.6805 1.67559 26.6223L6.22625 25.2916C6.71654 25.1943 7.22429 25.2368 7.69159 25.4143C10.5388 26.7439 13.7641 27.0252 16.7985 26.2086C19.8328 25.3919 22.4813 23.5298 24.2765 20.9508C26.0718 18.3717 26.8984 15.2415 26.6107 12.1123C26.3229 8.98318 24.9392 6.05622 22.7037 3.84785C20.4682 1.63949 17.5245 0.291643 14.3921 0.0421207C11.2597 -0.207402 8.13977 0.657434 5.58284 2.48404C3.02592 4.31065 1.1963 6.98165 0.416779 10.0258C-0.362738 13.0699 -0.0420528 16.2915 1.32226 19.1223Z" stroke="white" stroke-width="2.66667" stroke-linecap="round" stroke-linejoin="round"/>
</svg>
