<svg width="17" height="17" viewBox="0 0 17 17" fill="none" xmlns="http://www.w3.org/2000/svg">
<path d="M9.86 12.14C10.0321 12.219 10.226 12.2371 10.4097 12.1912C10.5935 12.1453 10.7561 12.0382 10.8708 11.8875L11.1667 11.5C11.3219 11.293 11.5232 11.125 11.7546 11.0093C11.9861 10.8936 12.2413 10.8333 12.5 10.8333H15C15.442 10.8333 15.8659 11.0089 16.1785 11.3215C16.4911 11.634 16.6667 12.058 16.6667 12.5V15C16.6667 15.442 16.4911 15.8659 16.1785 16.1785C15.8659 16.4911 15.442 16.6667 15 16.6667C11.0218 16.6667 7.20644 15.0863 4.3934 12.2733C1.58035 9.46022 0 5.64491 0 1.66667C0 1.22464 0.175595 0.800716 0.488155 0.488155C0.800716 0.175595 1.22464 0 1.66667 0H4.16667C4.60869 0 5.03262 0.175595 5.34518 0.488155C5.65774 0.800716 5.83333 1.22464 5.83333 1.66667V4.16667C5.83333 4.42541 5.77309 4.6806 5.65738 4.91202C5.54167 5.14345 5.37366 5.34476 5.16667 5.5L4.77667 5.7925C4.62368 5.90931 4.51585 6.07549 4.47149 6.26279C4.42713 6.4501 4.44899 6.64698 4.53333 6.82C5.67223 9.13322 7.54535 11.004 9.86 12.14Z" stroke="white" stroke-width="1.66667" stroke-linecap="round" stroke-linejoin="round"/>
</svg>
