<svg width="14" height="14" viewBox="0 0 14 14" fill="none" xmlns="http://www.w3.org/2000/svg">
<path d="M6.01293 0.544263C6.04149 0.391332 6.12265 0.253207 6.24233 0.153809C6.36201 0.0544106 6.51269 0 6.66826 0C6.82384 0 6.97452 0.0544106 7.0942 0.153809C7.21388 0.253207 7.29503 0.391332 7.3236 0.544263L8.02426 4.2496C8.07403 4.51303 8.20205 4.75534 8.39162 4.94491C8.58119 5.13448 8.8235 5.2625 9.08693 5.31226L12.7923 6.01293C12.9452 6.04149 13.0833 6.12265 13.1827 6.24233C13.2821 6.36201 13.3365 6.51269 13.3365 6.66826C13.3365 6.82384 13.2821 6.97452 13.1827 7.0942C13.0833 7.21388 12.9452 7.29503 12.7923 7.3236L9.08693 8.02426C8.8235 8.07403 8.58119 8.20205 8.39162 8.39162C8.20205 8.58119 8.07403 8.8235 8.02426 9.08693L7.3236 12.7923C7.29503 12.9452 7.21388 13.0833 7.0942 13.1827C6.97452 13.2821 6.82384 13.3365 6.66826 13.3365C6.51269 13.3365 6.36201 13.2821 6.24233 13.1827C6.12265 13.0833 6.04149 12.9452 6.01293 12.7923L5.31226 9.08693C5.2625 8.8235 5.13448 8.58119 4.94491 8.39162C4.75534 8.20205 4.51303 8.07403 4.2496 8.02426L0.544263 7.3236C0.391332 7.29503 0.253207 7.21388 0.153809 7.0942C0.0544106 6.97452 0 6.82384 0 6.66826C0 6.51269 0.0544106 6.36201 0.153809 6.24233C0.253207 6.12265 0.391332 6.04149 0.544263 6.01293L4.2496 5.31226C4.51303 5.2625 4.75534 5.13448 4.94491 4.94491C5.13448 4.75534 5.2625 4.51303 5.31226 4.2496L6.01293 0.544263Z" stroke="#51A2FF" stroke-width="1.33333" stroke-linecap="round" stroke-linejoin="round"/>
</svg>
